<svg id="Layer_1" data-name="Layer 1" xmlns="http://www.w3.org/2000/svg" viewBox="0 0 622.25 325.77">
  <defs>
    <style>
      .cls-1, .cls-2 {
        fill: #fff;
      }

      .cls-2 {
        opacity: 0.6;
      }
    </style>
  </defs>
  <title>NSD_Duotone_White</title>
  <g>
    <g>
      <path class="cls-1" d="M365.25,202.57l-42.13-55.24.13,5.43v49.81H307.89V121.76h14l42,55.51-.13-3.71v-51.8h15.37v80.81Z"/>
      <path class="cls-1" d="M449.37,139c-10.6-4.11-18.15-5.56-26-5.56-7.29,0-11.66,3.84-11.66,8.21,0,7.68,5.43,8.88,21.2,14.17,14.83,4.91,22.91,10.07,22.91,24.25,0,15.63-11.52,23.71-27.29,23.71-11.13,0-26-4.37-36.43-10.33l6-12.06c11.13,5.7,21.73,8.88,29.68,8.88,7.28,0,11.92-3.05,11.92-8.74,0-7-3.71-9.28-20.27-14.18C405.65,163.22,396,157.79,396,143c0-13.11,9.94-22.52,26.63-22.52a78.22,78.22,0,0,1,31.4,6.76Z"/>
      <path class="cls-1" d="M496.8,121.76c28.61,0,44.64,15,44.64,40,0,25.57-16.29,40.8-44.64,40.8H470.3V121.76Zm0,66.9c18.81,0,29.14-9.41,29.14-26.89,0-17-10.07-26.1-29.14-26.1H485.67v53Z"/>
    </g>
    <g>
      <path class="cls-2" d="M86.28,107.2a10.94,10.94,0,0,0-5.47,9.47v123.7a4.42,4.42,0,0,0,8.43,1.84l47.16-102.6-7-57.33Z"/>
      <path class="cls-2" d="M240,218.57a10.93,10.93,0,0,0,5.47-9.48V85.4A4.41,4.41,0,0,0,237,83.55L189.85,186.16l7,57.32Z"/>
      <path class="cls-1" d="M143.42,84.85a11,11,0,0,0-14-2.57L86.28,107.2a10.94,10.94,0,0,0-5.47,9.47v-.27a3.64,3.64,0,0,1,5.35-3.23l133,70a1.82,1.82,0,0,0,2.26-2.77Z"/>
      <path class="cls-1" d="M182.83,240.92a11,11,0,0,0,14,2.56L240,218.57a10.93,10.93,0,0,0,5.47-9.48v.28a3.65,3.65,0,0,1-5.34,3.23l-133-70a1.83,1.83,0,0,0-2.27,2.78Z"/>
    </g>
  </g>
</svg>
